<?xml version="1.0" standalone="no"?>
<!DOCTYPE svg PUBLIC "-//W3C//DTD SVG 20010904//EN"
 "http://www.w3.org/TR/2001/REC-SVG-20010904/DTD/svg10.dtd">
<svg version="1.0" xmlns="http://www.w3.org/2000/svg"
 width="512.000000pt" height="512.000000pt" viewBox="0 0 512.000000 512.000000"
 preserveAspectRatio="xMidYMid meet">
<metadata>
Created by potrace 1.14, written by Peter Selinger 2001-2017
</metadata>
<g transform="translate(0.000000,512.000000) scale(0.100000,-0.100000)"
fill="#000000" stroke="none">
<path d="M2135 5033 c-39 -3 -281 -39 -320 -47 -289 -61 -577 -170 -815 -309
-96 -57 -119 -80 -120 -120 0 -41 37 -70 127 -97 171 -52 227 -93 252 -182 13
-47 12 -53 -19 -178 -7 -25 -10 -78 -7 -118 4 -69 10 -84 119 -305 96 -194
113 -233 99 -239 -9 -3 -38 -14 -65 -23 -63 -23 -120 -75 -154 -139 -35 -69
-37 -188 -4 -256 32 -64 48 -80 228 -223 158 -126 161 -129 178 -185 27 -86
64 -177 112 -276 24 -49 44 -91 44 -92 0 -2 -172 -4 -382 -6 l-383 -3 -65 -31
c-36 -17 -82 -45 -102 -63 -50 -44 -103 -126 -121 -189 -19 -64 -17 -29 -17
-247 l0 -185 -60 -30 c-106 -54 -201 -121 -285 -205 -135 -133 -248 -360 -281
-561 -13 -86 -20 -542 -8 -589 15 -59 -154 -55 2474 -55 2587 0 2455 -3 2474
47 4 10 6 139 5 288 -2 258 -3 275 -30 384 -74 300 -267 548 -530 681 l-77 39
-4 208 -3 208 -31 65 c-46 95 -101 153 -192 197 l-76 38 -383 3 c-211 2 -383
7 -383 11 0 4 4 11 9 17 17 16 108 228 137 318 l28 86 154 122 c232 185 255
216 256 353 0 67 -4 88 -26 131 -42 80 -125 143 -210 158 -21 4 -38 12 -38 19
0 10 29 90 65 182 4 11 9 25 11 30 1 6 28 80 59 165 68 185 86 273 84 400 -5
324 -211 626 -507 746 -147 59 -135 58 -677 59 -275 1 -518 0 -540 -2z m1040
-169 c203 -47 363 -172 456 -357 80 -157 89 -353 26 -532 -51 -144 -65 -181
-67 -170 -1 6 -4 24 -6 40 -7 50 -44 156 -79 227 -57 113 -250 394 -277 401
-44 12 -56 6 -185 -96 -71 -57 -152 -116 -179 -131 -82 -46 -188 -77 -283 -82
-150 -8 -214 -18 -305 -50 -94 -33 -138 -59 -445 -263 -146 -98 -272 -181
-278 -185 -9 -5 -35 38 -88 145 -81 164 -90 204 -61 287 65 184 -21 384 -200
463 -55 25 -62 18 93 88 169 76 435 162 568 184 17 3 46 8 65 11 19 3 49 8 65
11 17 3 66 8 110 11 44 4 82 8 84 10 2 2 209 3 460 3 382 0 467 -2 526 -15z
m103 -727 c135 -207 158 -282 161 -530 l2 -167 -376 0 -376 0 -24 -26 c-20
-22 -25 -37 -25 -80 l0 -54 -79 0 -79 0 -4 61 c-8 104 14 99 -424 99 l-374 0
0 58 0 59 273 181 c369 246 361 243 662 267 100 8 177 30 281 80 77 37 190
114 258 177 26 24 29 20 124 -125z m-1757 -874 c5 -111 19 -252 29 -297 5 -21
4 -36 -1 -34 -31 11 -160 125 -174 155 -41 86 22 190 118 192 19 1 27 -4 28
-16z m321 -140 c5 -171 9 -187 68 -249 53 -57 82 -66 221 -72 98 -3 138 -1
180 12 103 31 161 112 167 234 l4 72 79 0 79 0 0 -56 c0 -81 18 -129 67 -184
58 -65 105 -80 248 -80 143 0 196 15 252 72 62 63 73 105 73 269 l0 139 80 0
79 0 -5 -92 c-4 -86 -7 -112 -19 -178 -2 -14 -7 -42 -10 -63 -23 -162 -116
-435 -204 -597 -19 -36 -40 -75 -45 -87 l-11 -23 -581 0 c-453 0 -584 3 -592
13 -5 6 -30 53 -55 102 -145 285 -216 545 -232 852 l-4 73 78 0 79 0 4 -157z
m476 16 c-4 -178 -4 -178 -151 -179 -108 0 -150 14 -161 52 -3 13 -6 78 -6
146 l0 122 161 0 161 0 -4 -141z m802 6 c0 -183 -7 -190 -184 -183 -132 4
-130 2 -134 178 l-4 140 161 0 161 0 0 -135z m569 114 c46 -25 61 -49 67 -103
8 -58 -16 -95 -108 -168 -66 -52 -97 -71 -84 -50 10 16 32 216 35 325 1 24 44
22 90 -4z m387 -1194 c55 -16 112 -66 140 -123 18 -35 19 -81 22 -869 l2 -833
-1680 0 -1680 0 0 813 c0 930 -4 885 79 960 27 24 64 48 83 54 23 8 495 11
1509 12 1270 1 1482 -1 1525 -14z m-3356 -1275 l0 -550 -241 0 -240 0 2 204
c2 252 16 339 80 481 68 153 186 287 339 385 25 16 48 29 53 29 4 1 7 -246 7
-549z m3764 503 c156 -103 293 -279 348 -448 35 -108 40 -149 45 -372 l5 -233
-241 0 -241 0 0 550 c0 303 3 550 6 550 4 0 38 -21 78 -47z"/>
<path d="M1862 1816 c-88 -88 -165 -172 -172 -184 -6 -13 -9 -36 -5 -50 6 -26
320 -352 338 -352 10 0 107 97 107 107 0 4 -57 65 -127 135 l-128 128 128 128
c70 70 127 131 127 135 0 5 -24 32 -54 61 l-54 53 -160 -161z"/>
<path d="M2496 1648 c-131 -175 -237 -321 -234 -324 3 -2 31 -24 64 -48 l58
-44 240 320 240 320 -25 19 c-13 10 -42 32 -64 47 l-40 29 -239 -319z"/>
<path d="M3038 1920 c-27 -27 -48 -53 -48 -57 0 -4 57 -65 127 -135 l128 -128
-128 -128 c-70 -70 -127 -131 -127 -135 0 -11 97 -107 107 -107 5 0 85 76 177
170 216 217 217 184 -6 407 -90 90 -167 163 -173 162 -5 0 -31 -22 -57 -49z"/>
<path d="M2485 1111 c-92 -24 -173 -90 -215 -176 -34 -69 -34 -197 -1 -267 37
-78 119 -151 191 -172 158 -46 313 21 387 166 24 45 27 65 27 138 0 69 -4 94
-24 135 -31 64 -92 124 -154 153 -53 25 -160 37 -211 23z m160 -177 c47 -31
69 -73 70 -134 0 -66 -27 -110 -85 -140 -119 -61 -247 37 -225 171 8 46 46 96
90 116 37 17 114 10 150 -13z"/>
</g>
</svg>
